<svg width="24" height="24" viewBox="0 0 24 24" fill="none" xmlns="http://www.w3.org/2000/svg">
<g clip-path="url(#clip0_451_4564)">
<g filter="url(#filter0_d_451_4564)">
<path d="M19 3H5C3.9 3 3 3.9 3 5V19C3 20.1 3.9 21 5 21H19C20.1 21 21 20.1 21 19V5C21 3.9 20.1 3 19 3ZM19 19H5V5H19V19ZM7 10H9V17H7V10ZM11 7H13V17H11V7ZM15 13H17V17H15V13Z" fill="white"/>
<path d="M19 19.5H19.5V19V5V4.5H19H5H4.5V5V19V19.5H5H19ZM5 3.5H19C19.8239 3.5 20.5 4.17614 20.5 5V19C20.5 19.8239 19.8239 20.5 19 20.5H5C4.17614 20.5 3.5 19.8239 3.5 19V5C3.5 4.17614 4.17614 3.5 5 3.5ZM7.5 10.5H8.5V16.5H7.5V10.5ZM11.5 7.5H12.5V16.5H11.5V7.5ZM15.5 13.5H16.5V16.5H15.5V13.5Z" stroke="#002333"/>
</g>
</g>
<defs>
<filter id="filter0_d_451_4564" x="-1" y="3" width="26" height="26" filterUnits="userSpaceOnUse" color-interpolation-filters="sRGB">
<feFlood flood-opacity="0" result="BackgroundImageFix"/>
<feColorMatrix in="SourceAlpha" type="matrix" values="0 0 0 0 0 0 0 0 0 0 0 0 0 0 0 0 0 0 127 0" result="hardAlpha"/>
<feOffset dy="4"/>
<feGaussianBlur stdDeviation="2"/>
<feComposite in2="hardAlpha" operator="out"/>
<feColorMatrix type="matrix" values="0 0 0 0 0 0 0 0 0 0 0 0 0 0 0 0 0 0 0.25 0"/>
<feBlend mode="normal" in2="BackgroundImageFix" result="effect1_dropShadow_451_4564"/>
<feBlend mode="normal" in="SourceGraphic" in2="effect1_dropShadow_451_4564" result="shape"/>
</filter>
<clipPath id="clip0_451_4564">
<rect width="24" height="24" fill="white"/>
</clipPath>
</defs>
</svg>
