<svg width="60" height="60" viewBox="0 0 60 60" fill="none" xmlns="http://www.w3.org/2000/svg">
<rect width="60" height="60" rx="24" fill="#1AEA8F"/>
<path d="M19.6538 18.3498C18.9316 19.5071 17.7225 20.268 16.372 20.4599C15.6131 20.5677 14.8571 20.6845 14.104 20.8099C11.9982 21.1608 10.5 23.0133 10.5 25.148V42C10.5 44.4853 12.5147 46.5 15 46.5H45C47.4853 46.5 49.5 44.4853 49.5 42V25.1481C49.5 23.0133 48.0018 21.1609 45.896 20.81C45.1429 20.6845 44.3869 20.5677 43.628 20.4599C42.2775 20.268 41.0684 19.5071 40.3462 18.3498L38.7038 15.7178C37.9468 14.5047 36.6588 13.7168 35.231 13.6401C33.4991 13.5471 31.7551 13.5 30 13.5C28.2449 13.5 26.5009 13.5471 24.769 13.6401C23.3412 13.7168 22.0532 14.5047 21.2962 15.7178L19.6538 18.3498Z" stroke="white" stroke-width="3" stroke-linecap="round" stroke-linejoin="round"/>
<path d="M39 31.5C39 36.4706 34.9706 40.5 30 40.5C25.0294 40.5 21 36.4706 21 31.5C21 26.5294 25.0294 22.5 30 22.5C34.9706 22.5 39 26.5294 39 31.5Z" stroke="white" stroke-width="3" stroke-linecap="round" stroke-linejoin="round"/>
<path d="M43.5 27H43.515V27.015H43.5V27Z" stroke="white" stroke-width="3" stroke-linecap="round" stroke-linejoin="round"/>
</svg>
