<svg width="24" height="24" viewBox="0 0 24 24" fill="none" xmlns="http://www.w3.org/2000/svg">
<rect width="24" height="24" rx="4" fill="#FF0000"/>
<path d="M5 4.00001H15V8.00001H19V20H5V4.00001ZM3.999 2.00001C3.86825 1.99948 3.73868 2.02473 3.61769 2.07431C3.49671 2.12389 3.38668 2.19683 3.2939 2.28896C3.20112 2.38109 3.12741 2.4906 3.07698 2.61123C3.02655 2.73187 3.00039 2.86126 3 2.99201V21.008C3.00209 21.2706 3.10742 21.5219 3.29322 21.7075C3.47902 21.8931 3.73038 21.9982 3.993 22H20.007C20.1384 21.9991 20.2683 21.9723 20.3894 21.9211C20.5104 21.87 20.6202 21.7954 20.7124 21.7018C20.8046 21.6082 20.8775 21.4973 20.9269 21.3755C20.9762 21.2537 21.0011 21.1234 21 20.992V7.00001L16 2.00001H3.999ZM10.499 7.50001C10.499 9.07701 10.044 10.937 9.275 12.653C8.503 14.376 7.461 15.85 6.375 16.719L7.555 18.332C10.482 16.38 13.723 15.042 16.859 15.49L17.316 13.551C14.644 12.661 12.5 9.99001 12.5 7.50001H10.499ZM11.099 13.472C11.367 12.875 11.604 12.256 11.804 11.629C12.2818 12.358 12.8556 13.0193 13.51 13.595C12.528 13.771 11.566 14.06 10.635 14.428C10.8003 14.114 10.9553 13.7953 11.1 13.472" fill="white"/>
</svg>
